<svg id="SvgjsSvg1006" width="1462.0000000000005" height="822.25" xmlns="http://www.w3.org/2000/svg" version="1.1" xmlns:xlink="http://www.w3.org/1999/xlink" xmlns:svgjs="http://svgjs.com/svgjs"><defs id="SvgjsDefs1007"><pattern patternUnits="userSpaceOnUse" id="pattern_mark_0" width="300" height="300"><text x="150" y="100" fill="rgba(229,229,229,0.8)" font-size="18" transform="rotate(-45, 150, 150)" style="dominant-baseline: middle; text-anchor: middle;"></text></pattern><pattern patternUnits="userSpaceOnUse" id="pattern_mark_1" width="300" height="300"><text x="150" y="200" fill="rgba(229,229,229,0.8)" font-size="18" transform="rotate(-45, 150, 150)" style="dominant-baseline: middle; text-anchor: middle;"></text></pattern><marker id="SvgjsMarker1069" markerWidth="13" markerHeight="9" refX="9.5" refY="4.5" viewBox="0 0 13 9" orient="auto" markerUnits="userSpaceOnUse" stroke-dasharray="0,0"><path id="SvgjsPath1070" d="M0,0 L13,4.5 L0,9 L0,0" fill="#323232" stroke="#323232" stroke-width="1"></path></marker><marker id="SvgjsMarker1073" markerWidth="13" markerHeight="9" refX="9.5" refY="4.5" viewBox="0 0 13 9" orient="auto" markerUnits="userSpaceOnUse" stroke-dasharray="0,0"><path id="SvgjsPath1074" d="M0,0 L13,4.5 L0,9 L0,0" fill="#323232" stroke="#323232" stroke-width="1"></path></marker><marker id="SvgjsMarker1155" markerWidth="13" markerHeight="9" refX="9.5" refY="4.5" viewBox="0 0 13 9" orient="auto" markerUnits="userSpaceOnUse" stroke-dasharray="0,0"><path id="SvgjsPath1156" d="M0,0 L13,4.5 L0,9 L0,0" fill="#323232" stroke="#323232" stroke-width="1"></path></marker><marker id="SvgjsMarker1159" markerWidth="13" markerHeight="9" refX="9.5" refY="4.5" viewBox="0 0 13 9" orient="auto" markerUnits="userSpaceOnUse" stroke-dasharray="0,0"><path id="SvgjsPath1160" d="M0,0 L13,4.5 L0,9 L0,0" fill="#323232" stroke="#323232" stroke-width="1"></path></marker></defs><rect id="svgbackgroundid" width="1462.0000000000005" height="822.25" fill="transparent"></rect><rect id="SvgjsRect1009" width="1462.0000000000005" height="822.25" fill="url(#pattern_mark_0)"></rect><rect id="SvgjsRect1010" width="1462.0000000000005" height="822.25" fill="url(#pattern_mark_1)"></rect><g id="SvgjsG1011" transform="translate(28,149)"><path id="SvgjsPath1012" d="M 0 4Q 0 0 4 0L 395 0Q 399 0 399 4L 399 361Q 399 365 395 365L 4 365Q 0 365 0 361Z" stroke-dasharray="7.5,3" stroke="rgba(33,41,48,1)" stroke-width="1.5" fill-opacity="1" fill="#fcf9ea"></path><g id="SvgjsG1013"><text id="SvgjsText1014" font-family="&quot;Microsoft YaHei&quot;, 微软雅黑, Arial" text-anchor="middle" font-size="13px" width="379px" fill="#323232" font-weight="400" align="middle" lineHeight="125%" anchor="middle" family="&quot;Microsoft YaHei&quot;, 微软雅黑, Arial" size="13px" weight="400" font-style="" opacity="1" y="171.875" transform="rotate(0)"></text></g></g><g id="SvgjsG1015" transform="translate(28,149)"><path id="SvgjsPath1016" d="M 0 0L 399 0L 399 40L 0 40Z" stroke="none" fill="none"></path><g id="SvgjsG1017"><text id="SvgjsText1018" font-family="&quot;Times New Roman&quot;" text-anchor="middle" font-size="18px" width="399px" fill="#323232" font-weight="700" align="middle" lineHeight="125%" anchor="middle" family="&quot;Times New Roman&quot;" size="18px" weight="700" font-style="" opacity="1" y="4.25" transform="rotate(0)"><tspan id="SvgjsTspan1019" dy="22.5" x="199.5"><tspan id="SvgjsTspan1020" style="">Architecture-layer Synthesis</tspan></tspan></text></g></g><g id="SvgjsG1021" transform="translate(50,375)"><path id="SvgjsPath1022" d="M 0 4Q 0 0 4 0L 353 0Q 357 0 357 4L 357 117Q 357 121 353 121L 4 121Q 0 121 0 117Z" stroke="rgba(33,41,48,1)" stroke-width="1.5" fill-opacity="1" fill="#ffffff"></path><g id="SvgjsG1023"><text id="SvgjsText1024" font-family="&quot;Times New Roman&quot;" text-anchor="middle" font-size="13px" width="337px" fill="#323232" font-weight="400" align="middle" lineHeight="125%" anchor="middle" family="&quot;Times New Roman&quot;" size="13px" weight="400" font-style="" opacity="1" y="49.875" transform="rotate(0)"></text></g></g><g id="SvgjsG1025" transform="translate(48,374)"><path id="SvgjsPath1026" d="M 0 0L 100 0L 100 40L 0 40Z" stroke="none" fill="none"></path><g id="SvgjsG1027"><text id="SvgjsText1028" font-family="&quot;Times New Roman&quot;" text-anchor="middle" font-size="16px" width="100px" fill="#323232" font-weight="400" align="middle" lineHeight="125%" anchor="middle" family="&quot;Times New Roman&quot;" size="16px" weight="400" font-style="" opacity="1" y="6" transform="rotate(0)"><tspan id="SvgjsTspan1029" dy="20" x="50"><tspan id="SvgjsTspan1030" style="font-weight: bold;">Database</tspan></tspan></text></g></g><g id="SvgjsG1031" transform="translate(49,203)"><path id="SvgjsPath1032" d="M 0 4Q 0 0 4 0L 353 0Q 357 0 357 4L 357 141Q 357 145 353 145L 4 145Q 0 145 0 141Z" stroke="rgba(33,41,48,1)" stroke-width="1.5" fill-opacity="1" fill="#ffffff"></path><g id="SvgjsG1033"><text id="SvgjsText1034" font-family="&quot;Times New Roman&quot;" text-anchor="middle" font-size="13px" width="337px" fill="#323232" font-weight="400" align="middle" lineHeight="125%" anchor="middle" family="&quot;Times New Roman&quot;" size="13px" weight="400" font-style="" opacity="1" y="61.875" transform="rotate(0)"></text></g></g><g id="SvgjsG1035" transform="translate(48,203)"><path id="SvgjsPath1036" d="M 0 0L 100 0L 100 40L 0 40Z" stroke="none" fill="none"></path><g id="SvgjsG1037"><text id="SvgjsText1038" font-family="&quot;Times New Roman&quot;" text-anchor="middle" font-size="16px" width="100px" fill="#323232" font-weight="400" align="middle" lineHeight="125%" anchor="middle" family="&quot;Times New Roman&quot;" size="16px" weight="400" font-style="" opacity="1" y="6" transform="rotate(0)"><tspan id="SvgjsTspan1039" dy="20" x="50"><tspan id="SvgjsTspan1040" style="font-weight: bold;">Operators</tspan></tspan></text></g></g><g id="SvgjsG1041" transform="translate(189,25)"><path id="SvgjsPath1042" d="M 0 0L 61 0L 77 16L 77 91L 0 91L 0 0Z" stroke="none" fill-opacity="1" fill="#fcf9ea"></path><path id="SvgjsPath1043" d="M 61 0L 61 16L 77 16Z" stroke="none" fill-opacity="1" fill="#e4d089"></path><path id="SvgjsPath1044" d="M 0 0L 61 0L 77 16L 77 91L 0 91L 0 0Z" stroke="none" fill="none"></path><g id="SvgjsG1045"><text id="SvgjsText1046" font-family="&quot;Microsoft YaHei&quot;, 微软雅黑, Arial" text-anchor="middle" font-size="13px" width="57px" fill="#323232" font-weight="400" align="middle" lineHeight="125%" anchor="middle" family="&quot;Microsoft YaHei&quot;, 微软雅黑, Arial" size="13px" weight="400" font-style="" opacity="1" y="34.875" transform="rotate(0)"><tspan id="SvgjsTspan1047" dy="16.25" x="38.5"><tspan id="SvgjsTspan1048" style="font-weight: bold;">Verilog</tspan></tspan></text></g></g><g id="SvgjsG1049" transform="translate(698.9999999999999,25)"><path id="SvgjsPath1050" d="M 0 0L 61 0L 77 16L 77 91L 0 91L 0 0Z" stroke="none" fill-opacity="1" fill="#e5f6da"></path><path id="SvgjsPath1051" d="M 61 0L 61 16L 77 16Z" stroke="none" fill-opacity="1" fill="#e4d089"></path><path id="SvgjsPath1052" d="M 0 0L 61 0L 77 16L 77 91L 0 91L 0 0Z" stroke="none" fill="none"></path><g id="SvgjsG1053"><text id="SvgjsText1054" font-family="&quot;Microsoft YaHei&quot;, 微软雅黑, Arial" text-anchor="middle" font-size="13px" width="57px" fill="#323232" font-weight="400" align="middle" lineHeight="125%" anchor="middle" family="&quot;Microsoft YaHei&quot;, 微软雅黑, Arial" size="13px" weight="400" font-style="" opacity="1" y="26.375" transform="rotate(0)"><tspan id="SvgjsTspan1055" dy="16.25" x="38.5"><tspan id="SvgjsTspan1056" style="font-weight: bold;">Boolean </tspan></tspan><tspan id="SvgjsTspan1057" dy="16.25" x="38.5"><tspan id="SvgjsTspan1058" style="font-weight: bold;">Circuit</tspan></tspan></text></g></g><g id="SvgjsG1059" transform="translate(1199.0000000000005,25)"><path id="SvgjsPath1060" d="M 0 0L 61 0L 77 16L 77 91L 0 91L 0 0Z" stroke="none" fill-opacity="1" fill="#d2d6f9"></path><path id="SvgjsPath1061" d="M 61 0L 61 16L 77 16Z" stroke="none" fill-opacity="1" fill="#e4d089"></path><path id="SvgjsPath1062" d="M 0 0L 61 0L 77 16L 77 91L 0 91L 0 0Z" stroke="none" fill="none"></path><g id="SvgjsG1063"><text id="SvgjsText1064" font-family="&quot;Microsoft YaHei&quot;, 微软雅黑, Arial" text-anchor="middle" font-size="13px" width="57px" fill="#323232" font-weight="400" align="middle" lineHeight="125%" anchor="middle" family="&quot;Microsoft YaHei&quot;, 微软雅黑, Arial" size="13px" weight="400" font-style="" opacity="1" y="34.875" transform="rotate(0)"><tspan id="SvgjsTspan1065" dy="16.25" x="38.5"><tspan id="SvgjsTspan1066" style="font-weight: bold;">Netlist</tspan></tspan></text></g></g><g id="SvgjsG1067"><path id="SvgjsPath1068" d="M266 70.5L482.5 70.5L482.5 70.5L697.0499999999998 70.5" stroke-dasharray="1.5,2.25" stroke="#323232" stroke-width="1.5" fill="none" marker-end="url(#SvgjsMarker1069)"></path></g><g id="SvgjsG1071"><path id="SvgjsPath1072" d="M775.9999999999999 70.5L987.5000000000002 70.5L987.5000000000002 70.5L1197.0500000000004 70.5" stroke-dasharray="1.5,2.25" stroke="#323232" stroke-width="1.5" fill="none" marker-end="url(#SvgjsMarker1073)"></path></g><g id="SvgjsG1075" transform="translate(537.9999999999999,149)"><path id="SvgjsPath1076" d="M 0 4Q 0 0 4 0L 395 0Q 399 0 399 4L 399 361Q 399 365 395 365L 4 365Q 0 365 0 361Z" stroke-dasharray="7.5,3" stroke="rgba(33,41,48,1)" stroke-width="1.5" fill-opacity="1" fill="#e5f6da"></path><g id="SvgjsG1077"><text id="SvgjsText1078" font-family="&quot;Microsoft YaHei&quot;, 微软雅黑, Arial" text-anchor="middle" font-size="13px" width="379px" fill="#323232" font-weight="400" align="middle" lineHeight="125%" anchor="middle" family="&quot;Microsoft YaHei&quot;, 微软雅黑, Arial" size="13px" weight="400" font-style="" opacity="1" y="171.875" transform="rotate(0)"></text></g></g><g id="SvgjsG1079" transform="translate(537.9999999999999,149)"><path id="SvgjsPath1080" d="M 0 0L 399 0L 399 40L 0 40Z" stroke="none" fill="none"></path><g id="SvgjsG1081"><text id="SvgjsText1082" font-family="&quot;Times New Roman&quot;" text-anchor="middle" font-size="18px" width="399px" fill="#323232" font-weight="700" align="middle" lineHeight="125%" anchor="middle" family="&quot;Times New Roman&quot;" size="18px" weight="700" font-style="" opacity="1" y="4.25" transform="rotate(0)"><tspan id="SvgjsTspan1083" dy="22.5" x="199.5"><tspan id="SvgjsTspan1084" style="">Logic-layer Synthesis</tspan></tspan></text></g></g><g id="SvgjsG1085" transform="translate(559.9999999999999,375)"><path id="SvgjsPath1086" d="M 0 4Q 0 0 4 0L 353 0Q 357 0 357 4L 357 117Q 357 121 353 121L 4 121Q 0 121 0 117Z" stroke="rgba(33,41,48,1)" stroke-width="1.5" fill-opacity="1" fill="#ffffff"></path><g id="SvgjsG1087"><text id="SvgjsText1088" font-family="&quot;Times New Roman&quot;" text-anchor="middle" font-size="13px" width="337px" fill="#323232" font-weight="400" align="middle" lineHeight="125%" anchor="middle" family="&quot;Times New Roman&quot;" size="13px" weight="400" font-style="" opacity="1" y="49.875" transform="rotate(0)"></text></g></g><g id="SvgjsG1089" transform="translate(557.9999999999999,374)"><path id="SvgjsPath1090" d="M 0 0L 100 0L 100 40L 0 40Z" stroke="none" fill="none"></path><g id="SvgjsG1091"><text id="SvgjsText1092" font-family="&quot;Times New Roman&quot;" text-anchor="middle" font-size="16px" width="100px" fill="#323232" font-weight="400" align="middle" lineHeight="125%" anchor="middle" family="&quot;Times New Roman&quot;" size="16px" weight="400" font-style="" opacity="1" y="6" transform="rotate(0)"><tspan id="SvgjsTspan1093" dy="20" x="50"><tspan id="SvgjsTspan1094" style="font-weight: bold;">Database</tspan></tspan></text></g></g><g id="SvgjsG1095" transform="translate(558.9999999999999,204)"><path id="SvgjsPath1096" d="M 0 4Q 0 0 4 0L 353 0Q 357 0 357 4L 357 141Q 357 145 353 145L 4 145Q 0 145 0 141Z" stroke="rgba(33,41,48,1)" stroke-width="1.5" fill-opacity="1" fill="#ffffff"></path><g id="SvgjsG1097"><text id="SvgjsText1098" font-family="&quot;Times New Roman&quot;" text-anchor="middle" font-size="13px" width="337px" fill="#323232" font-weight="400" align="middle" lineHeight="125%" anchor="middle" family="&quot;Times New Roman&quot;" size="13px" weight="400" font-style="" opacity="1" y="61.875" transform="rotate(0)"></text></g></g><g id="SvgjsG1099" transform="translate(557.9999999999999,203)"><path id="SvgjsPath1100" d="M 0 0L 100 0L 100 40L 0 40Z" stroke="none" fill="none"></path><g id="SvgjsG1101"><text id="SvgjsText1102" font-family="&quot;Times New Roman&quot;" text-anchor="middle" font-size="16px" width="100px" fill="#323232" font-weight="400" align="middle" lineHeight="125%" anchor="middle" family="&quot;Times New Roman&quot;" size="16px" weight="400" font-style="" opacity="1" y="6" transform="rotate(0)"><tspan id="SvgjsTspan1103" dy="20" x="50"><tspan id="SvgjsTspan1104" style="font-weight: bold;">Operators</tspan></tspan></text></g></g><g id="SvgjsG1105" transform="translate(1038.0000000000005,149)"><path id="SvgjsPath1106" d="M 0 4Q 0 0 4 0L 395 0Q 399 0 399 4L 399 361Q 399 365 395 365L 4 365Q 0 365 0 361Z" stroke-dasharray="7.5,3" stroke="rgba(33,41,48,1)" stroke-width="1.5" fill-opacity="1" fill="#d2d6f9"></path><g id="SvgjsG1107"><text id="SvgjsText1108" font-family="&quot;Microsoft YaHei&quot;, 微软雅黑, Arial" text-anchor="middle" font-size="13px" width="379px" fill="#323232" font-weight="400" align="middle" lineHeight="125%" anchor="middle" family="&quot;Microsoft YaHei&quot;, 微软雅黑, Arial" size="13px" weight="400" font-style="" opacity="1" y="171.875" transform="rotate(0)"></text></g></g><g id="SvgjsG1109" transform="translate(1038.0000000000005,149)"><path id="SvgjsPath1110" d="M 0 0L 399 0L 399 40L 0 40Z" stroke="none" fill="none"></path><g id="SvgjsG1111"><text id="SvgjsText1112" font-family="&quot;Times New Roman&quot;" text-anchor="middle" font-size="18px" width="399px" fill="#323232" font-weight="700" align="middle" lineHeight="125%" anchor="middle" family="&quot;Times New Roman&quot;" size="18px" weight="700" font-style="" opacity="1" y="4.25" transform="rotate(0)"><tspan id="SvgjsTspan1113" dy="22.5" x="199.5"><tspan id="SvgjsTspan1114" style="">Gate-layer Synthesis</tspan></tspan></text></g></g><g id="SvgjsG1115" transform="translate(1060.0000000000005,375)"><path id="SvgjsPath1116" d="M 0 4Q 0 0 4 0L 353 0Q 357 0 357 4L 357 117Q 357 121 353 121L 4 121Q 0 121 0 117Z" stroke="rgba(33,41,48,1)" stroke-width="1.5" fill-opacity="1" fill="#ffffff"></path><g id="SvgjsG1117"><text id="SvgjsText1118" font-family="&quot;Times New Roman&quot;" text-anchor="middle" font-size="13px" width="337px" fill="#323232" font-weight="400" align="middle" lineHeight="125%" anchor="middle" family="&quot;Times New Roman&quot;" size="13px" weight="400" font-style="" opacity="1" y="49.875" transform="rotate(0)"></text></g></g><g id="SvgjsG1119" transform="translate(1058.0000000000005,374)"><path id="SvgjsPath1120" d="M 0 0L 100 0L 100 40L 0 40Z" stroke="none" fill="none"></path><g id="SvgjsG1121"><text id="SvgjsText1122" font-family="&quot;Times New Roman&quot;" text-anchor="middle" font-size="16px" width="100px" fill="#323232" font-weight="400" align="middle" lineHeight="125%" anchor="middle" family="&quot;Times New Roman&quot;" size="16px" weight="400" font-style="" opacity="1" y="6" transform="rotate(0)"><tspan id="SvgjsTspan1123" dy="20" x="50"><tspan id="SvgjsTspan1124" style="font-weight: bold;">Database</tspan></tspan></text></g></g><g id="SvgjsG1125" transform="translate(1059.0000000000005,204)"><path id="SvgjsPath1126" d="M 0 4Q 0 0 4 0L 353 0Q 357 0 357 4L 357 141Q 357 145 353 145L 4 145Q 0 145 0 141Z" stroke="rgba(33,41,48,1)" stroke-width="1.5" fill-opacity="1" fill="#ffffff"></path><g id="SvgjsG1127"><text id="SvgjsText1128" font-family="&quot;Times New Roman&quot;" text-anchor="middle" font-size="13px" width="337px" fill="#323232" font-weight="400" align="middle" lineHeight="125%" anchor="middle" family="&quot;Times New Roman&quot;" size="13px" weight="400" font-style="" opacity="1" y="61.875" transform="rotate(0)"></text></g></g><g id="SvgjsG1129" transform="translate(1058.0000000000005,203)"><path id="SvgjsPath1130" d="M 0 0L 100 0L 100 40L 0 40Z" stroke="none" fill="none"></path><g id="SvgjsG1131"><text id="SvgjsText1132" font-family="&quot;Times New Roman&quot;" text-anchor="middle" font-size="16px" width="100px" fill="#323232" font-weight="400" align="middle" lineHeight="125%" anchor="middle" family="&quot;Times New Roman&quot;" size="16px" weight="400" font-style="" opacity="1" y="6" transform="rotate(0)"><tspan id="SvgjsTspan1133" dy="20" x="50"><tspan id="SvgjsTspan1134" style="font-weight: bold;">Operators</tspan></tspan></text></g></g><g id="SvgjsG1135" transform="translate(150.5,113)"><path id="SvgjsPath1136" d="M 0 0L 154 0L 154 40L 0 40Z" stroke="none" fill="none"></path><g id="SvgjsG1137"><text id="SvgjsText1138" font-family="&quot;Times New Roman&quot;" text-anchor="middle" font-size="14px" width="154px" fill="#323232" font-weight="700" align="middle" lineHeight="125%" anchor="middle" family="&quot;Times New Roman&quot;" size="14px" weight="700" font-style="" opacity="1" y="8.25" transform="rotate(0)"><tspan id="SvgjsTspan1139" dy="17.5" x="77"><tspan id="SvgjsTspan1140" style="">word-level verilog</tspan></tspan></text></g></g><g id="SvgjsG1141" transform="translate(660.4999999999999,113)"><path id="SvgjsPath1142" d="M 0 0L 154 0L 154 40L 0 40Z" stroke="none" fill="none"></path><g id="SvgjsG1143"><text id="SvgjsText1144" font-family="&quot;Times New Roman&quot;" text-anchor="middle" font-size="14px" width="154px" fill="#323232" font-weight="700" align="middle" lineHeight="125%" anchor="middle" family="&quot;Times New Roman&quot;" size="14px" weight="700" font-style="" opacity="1" y="8.25" transform="rotate(0)"><tspan id="SvgjsTspan1145" dy="17.5" x="77"><tspan id="SvgjsTspan1146" style="">bit-level circuit</tspan></tspan></text></g></g><g id="SvgjsG1147" transform="translate(1160.5000000000005,113)"><path id="SvgjsPath1148" d="M 0 0L 154 0L 154 40L 0 40Z" stroke="none" fill="none"></path><g id="SvgjsG1149"><text id="SvgjsText1150" font-family="&quot;Times New Roman&quot;" text-anchor="middle" font-size="14px" width="154px" fill="#323232" font-weight="700" align="middle" lineHeight="125%" anchor="middle" family="&quot;Times New Roman&quot;" size="14px" weight="700" font-style="" opacity="1" y="8.25" transform="rotate(0)"><tspan id="SvgjsTspan1151" dy="17.5" x="77"><tspan id="SvgjsTspan1152" style="">gate-level netlist</tspan></tspan></text></g></g><g id="SvgjsG1153"><path id="SvgjsPath1154" d="M427.7499999999999 331.5L482.4999999999999 331.5L482.4999999999999 331.5L535.2999999999998 331.5" stroke="#323232" stroke-width="1.5" fill="none" marker-end="url(#SvgjsMarker1155)"></path></g><g id="SvgjsG1157"><path id="SvgjsPath1158" d="M937.75 331.5L987.5000000000002 331.5L987.5000000000002 331.5L1035.3000000000004 331.5" stroke="#323232" stroke-width="1.5" fill="none" marker-end="url(#SvgjsMarker1159)"></path></g><g id="SvgjsG1161" transform="translate(61,239.37499999999997)"><path id="SvgjsPath1162" d="M 0 0L 100 0L 100 28L 0 28Z" stroke="none" fill="none"></path><g id="SvgjsG1163"><text id="SvgjsText1164" font-family="&quot;Times New Roman&quot;" text-anchor="middle" font-size="15px" width="100px" fill="#323232" font-weight="400" align="middle" lineHeight="125%" anchor="middle" family="&quot;Times New Roman&quot;" size="15px" weight="400" font-style="" opacity="1" y="1.625" transform="rotate(0)"><tspan id="SvgjsTspan1165" dy="18.75" x="50"><tspan id="SvgjsTspan1166" style="">RTL elaboration</tspan></tspan></text></g></g><g id="SvgjsG1167" transform="translate(56,263)"><path id="SvgjsPath1168" d="M 0 0L 185 0L 185 27L 0 27Z" stroke="none" fill="none"></path><g id="SvgjsG1169"><text id="SvgjsText1170" font-family="&quot;Times New Roman&quot;" text-anchor="start" font-size="14px" width="185px" fill="#323232" font-weight="400" align="middle" lineHeight="125%" anchor="start" family="&quot;Times New Roman&quot;" size="14px" weight="400" font-style="" opacity="1" y="1.75" transform="rotate(0)"><tspan id="SvgjsTspan1171" dy="17.5" x="0"><tspan id="SvgjsTspan1172" style="">Sequence Graph Generation</tspan></tspan></text></g></g><g id="SvgjsG1173" transform="translate(245,251.62499999999997)"><path id="SvgjsPath1174" d="M 0 0L 162 0L 162 65L 0 65Z" stroke="none" fill="none"></path><g id="SvgjsG1175"><text id="SvgjsText1176" font-family="&quot;Times New Roman&quot;" text-anchor="start" font-size="14px" width="162px" fill="#323232" font-weight="400" align="middle" lineHeight="125%" anchor="start" family="&quot;Times New Roman&quot;" size="14px" weight="400" font-style="" opacity="1" y="3.25" transform="rotate(0)"><tspan id="SvgjsTspan1177" dy="17.5" x="0"><tspan id="SvgjsTspan1178" style="">Data-flow graph Opt</tspan></tspan><tspan id="SvgjsTspan1179" dy="17.5" x="0"><tspan id="SvgjsTspan1180" style="">Control-flow graph Opt</tspan></tspan><tspan id="SvgjsTspan1181" dy="17.5" x="0"><tspan id="SvgjsTspan1182" style="">Scheduling</tspan></tspan></text></g></g><g id="SvgjsG1183" transform="translate(61,288.625)"><path id="SvgjsPath1184" d="M 0 0L 175 0L 175 28L 0 28Z" stroke="none" fill="none"></path><g id="SvgjsG1185"><text id="SvgjsText1186" font-family="&quot;Times New Roman&quot;" text-anchor="start" font-size="14px" width="175px" fill="#323232" font-weight="400" align="middle" lineHeight="125%" anchor="start" family="&quot;Times New Roman&quot;" size="14px" weight="400" font-style="" opacity="1" y="2.25" transform="rotate(0)"><tspan id="SvgjsTspan1187" dy="17.5" x="0"><tspan id="SvgjsTspan1188" style="">Hierarchy / Flatten</tspan></tspan></text></g></g><g id="SvgjsG1189" transform="translate(61,309)"><path id="SvgjsPath1190" d="M 0 0L 175 0L 175 40L 0 40Z" stroke="none" fill="none"></path><g id="SvgjsG1191"><text id="SvgjsText1192" font-family="&quot;Times New Roman&quot;" text-anchor="start" font-size="14px" width="175px" fill="#323232" font-weight="400" align="middle" lineHeight="125%" anchor="start" family="&quot;Times New Roman&quot;" size="14px" weight="400" font-style="" opacity="1" y="8.25" transform="rotate(0)"><tspan id="SvgjsTspan1193" dy="17.5" x="0"><tspan id="SvgjsTspan1194" style="">Desgin-pattern Store</tspan></tspan></text></g></g><g id="SvgjsG1195" transform="translate(67,412.5000000000001)"><path id="SvgjsPath1196" d="M 0 0L 266 0L 266 40L 0 40Z" stroke="none" fill="none"></path><g id="SvgjsG1197"><text id="SvgjsText1198" font-family="&quot;Times New Roman&quot;" text-anchor="start" font-size="14px" width="266px" fill="#323232" font-weight="400" align="middle" lineHeight="125%" anchor="start" family="&quot;Times New Roman&quot;" size="14px" weight="400" font-style="" opacity="1" y="-0.25" transform="rotate(0)"><tspan id="SvgjsTspan1199" dy="17.5" x="0"><tspan id="SvgjsTspan1200" style="">Design IR, </tspan></tspan><tspan id="SvgjsTspan1201" dy="17.5" x="0"><tspan id="SvgjsTspan1202" style="">refer to verilog 2005/ Yosys verilog parser</tspan></tspan></text></g></g><g id="SvgjsG1203" transform="translate(432.4999999999999,290)"><path id="SvgjsPath1204" d="M 0 0L 100 0L 100 40L 0 40Z" stroke="none" fill="none"></path><g id="SvgjsG1205"><text id="SvgjsText1206" font-family="&quot;Times New Roman&quot;" text-anchor="middle" font-size="13px" width="100px" fill="#323232" font-weight="700" align="middle" lineHeight="125%" anchor="middle" family="&quot;Times New Roman&quot;" size="13px" weight="700" font-style="" opacity="1" y="9.375" transform="rotate(0)"><tspan id="SvgjsTspan1207" dy="16.25" x="50"><tspan id="SvgjsTspan1208" style="">Bit-blasting</tspan></tspan></text></g></g><g id="SvgjsG1209" transform="translate(937,289.625)"><path id="SvgjsPath1210" d="M 0 0L 100 0L 100 40L 0 40Z" stroke="none" fill="none"></path><g id="SvgjsG1211"><text id="SvgjsText1212" font-family="&quot;Times New Roman&quot;" text-anchor="middle" font-size="13px" width="100px" fill="#323232" font-weight="700" align="middle" lineHeight="125%" anchor="middle" family="&quot;Times New Roman&quot;" size="13px" weight="700" font-style="" opacity="1" y="0.875" transform="rotate(0)"><tspan id="SvgjsTspan1213" dy="16.25" x="50"><tspan id="SvgjsTspan1214" style="">Technology </tspan></tspan><tspan id="SvgjsTspan1215" dy="16.25" x="50"><tspan id="SvgjsTspan1216" style="">mapping</tspan></tspan></text></g></g><g id="SvgjsG1217" transform="translate(567.9999999999999,223.99999999999997)"><path id="SvgjsPath1218" d="M 0 0L 341 0L 341 119.5L 0 119.5Z" stroke="none" fill="none"></path><g id="SvgjsG1219"><text id="SvgjsText1220" font-family="&quot;Times New Roman&quot;" text-anchor="start" font-size="14px" width="341px" fill="#323232" font-weight="400" align="middle" lineHeight="125%" anchor="start" family="&quot;Times New Roman&quot;" size="14px" weight="400" font-style="" opacity="1" y="4.5" transform="rotate(0)"><tspan id="SvgjsTspan1221" dy="17.5" x="0"><tspan id="SvgjsTspan1222" style="">Boolean representation</tspan></tspan><tspan id="SvgjsTspan1223" dy="17.5" x="0"><tspan id="SvgjsTspan1224" style="">Boolean equivalence transformation</tspan></tspan><tspan id="SvgjsTspan1225" dy="17.5" x="0"><tspan id="SvgjsTspan1226" style="">Subgraph enumeration</tspan></tspan><tspan id="SvgjsTspan1227" dy="17.5" x="0"><tspan id="SvgjsTspan1228" style="">Circuit feature learning</tspan></tspan><tspan id="SvgjsTspan1229" dy="17.5" x="0"><tspan id="SvgjsTspan1230" style="">Logic Optimization</tspan></tspan><tspan id="SvgjsTspan1231" dy="17.5" x="0"><tspan id="SvgjsTspan1232" style="">Opt sequence learning (limit time, limit count, unlimit)</tspan></tspan></text></g></g><g id="SvgjsG1233" transform="translate(568.9999999999999,402.0000000000001)"><path id="SvgjsPath1234" d="M 0 0L 339 0L 339 86L 0 86Z" stroke="none" fill="none"></path><g id="SvgjsG1235"><text id="SvgjsText1236" font-family="&quot;Times New Roman&quot;" text-anchor="start" font-size="14px" width="339px" fill="#323232" font-weight="400" align="middle" lineHeight="125%" anchor="start" family="&quot;Times New Roman&quot;" size="14px" weight="400" font-style="" opacity="1" y="-3.75" transform="rotate(0)"><tspan id="SvgjsTspan1237" dy="17.5" x="0"><tspan id="SvgjsTspan1238" style="">Boolean function: truth table, boolean formula</tspan></tspan><tspan id="SvgjsTspan1239" dy="17.5" x="0"><tspan id="SvgjsTspan1240" style="">Subgraph : k-feasible cut , kl-cut, window</tspan></tspan><tspan id="SvgjsTspan1241" dy="17.5" x="0"><tspan id="SvgjsTspan1242" style="">NPN store</tspan></tspan><tspan id="SvgjsTspan1243" dy="17.5" x="0"><tspan id="SvgjsTspan1244" style="">Boolean circuit: AIG, XAG, MIG...</tspan></tspan><tspan id="SvgjsTspan1245" dy="17.5" x="0"><tspan id="SvgjsTspan1246" style="">DAG</tspan></tspan></text></g></g><g id="SvgjsG1247" transform="translate(1068.0000000000005,412.5000000000001)"><path id="SvgjsPath1248" d="M 0 0L 339 0L 339 65L 0 65Z" stroke="none" fill="none"></path><g id="SvgjsG1249"><text id="SvgjsText1250" font-family="&quot;Times New Roman&quot;" text-anchor="start" font-size="14px" width="339px" fill="#323232" font-weight="400" align="middle" lineHeight="125%" anchor="start" family="&quot;Times New Roman&quot;" size="14px" weight="400" font-style="" opacity="1" y="-5.25" transform="rotate(0)"><tspan id="SvgjsTspan1251" dy="17.5" x="0"><tspan id="SvgjsTspan1252" style="">Gate : standard cell, supergate</tspan></tspan><tspan id="SvgjsTspan1253" dy="17.5" x="0"><tspan id="SvgjsTspan1254" style="">Library: NPN-based supergate library </tspan></tspan><tspan id="SvgjsTspan1255" dy="17.5" x="0"><tspan id="SvgjsTspan1256" style="">Mapped-netlist: klut-network, binded klut-network</tspan></tspan><tspan id="SvgjsTspan1257" dy="17.5" x="0"><tspan id="SvgjsTspan1258" style="">Physical info: iDB</tspan></tspan></text></g></g><g id="SvgjsG1259" transform="translate(1068.0000000000005,242.99999999999997)"><path id="SvgjsPath1260" d="M 0 0L 341 0L 341 94.875L 0 94.875Z" stroke="none" fill="none"></path><g id="SvgjsG1261"><text id="SvgjsText1262" font-family="&quot;Times New Roman&quot;" text-anchor="start" font-size="14px" width="341px" fill="#323232" font-weight="400" align="middle" lineHeight="125%" anchor="start" family="&quot;Times New Roman&quot;" size="14px" weight="400" font-style="" opacity="1" y="-7.8125" transform="rotate(0)"><tspan id="SvgjsTspan1263" dy="17.5" x="0"><tspan id="SvgjsTspan1264" style="">FPGA/ASIC technology mapping</tspan></tspan><tspan id="SvgjsTspan1265" dy="17.5" x="0"><tspan id="SvgjsTspan1266" style="">Delay estimation: mainly for supergate</tspan></tspan><tspan id="SvgjsTspan1267" dy="17.5" x="0"><tspan id="SvgjsTspan1268" style="">Retiming</tspan></tspan><tspan id="SvgjsTspan1269" dy="17.5" x="0"><tspan id="SvgjsTspan1270" style="">Resynthesis</tspan></tspan><tspan id="SvgjsTspan1271" dy="17.5" x="0"><tspan id="SvgjsTspan1272" style="">Physical-aware remapping</tspan></tspan><tspan id="SvgjsTspan1273" dy="17.5" x="0"><tspan id="SvgjsTspan1274" style=""> </tspan></tspan></text></g></g><g id="SvgjsG1275" transform="translate(25,682)"><path id="SvgjsPath1276" d="M 0 4Q 0 0 4 0L 1408 0Q 1412 0 1412 4L 1412 111.25Q 1412 115.25 1408 115.25L 4 115.25Q 0 115.25 0 111.25Z" stroke-dasharray="7.5,3" stroke="rgba(33,41,48,1)" stroke-width="1.5" fill-opacity="1" fill="#ffffff"></path><g id="SvgjsG1277"><text id="SvgjsText1278" font-family="&quot;Microsoft YaHei&quot;, 微软雅黑, Arial" text-anchor="middle" font-size="13px" width="1392px" fill="#323232" font-weight="400" align="middle" lineHeight="125%" anchor="middle" family="&quot;Microsoft YaHei&quot;, 微软雅黑, Arial" size="13px" weight="400" font-style="" opacity="1" y="47" transform="rotate(0)"></text></g></g><g id="SvgjsG1279" transform="translate(25,682)"><path id="SvgjsPath1280" d="M 0 0L 166 0L 166 40L 0 40Z" stroke="none" fill="none"></path><g id="SvgjsG1281"><text id="SvgjsText1282" font-family="&quot;Times New Roman&quot;" text-anchor="middle" font-size="18px" width="166px" fill="#323232" font-weight="700" align="middle" lineHeight="125%" anchor="middle" family="&quot;Times New Roman&quot;" size="18px" weight="700" font-style="" opacity="1" y="4.25" transform="rotate(0)"><tspan id="SvgjsTspan1283" dy="22.5" x="83"><tspan id="SvgjsTspan1284" style="">Common concepts</tspan></tspan></text></g></g><g id="SvgjsG1285" transform="translate(64,726.25)"><path id="SvgjsPath1286" d="M 0 0L 100 0L 100 40L 0 40Z" stroke="none" fill="none"></path><g id="SvgjsG1287"><text id="SvgjsText1288" font-family="&quot;Times New Roman&quot;" text-anchor="middle" font-size="14px" width="100px" fill="#323232" font-weight="400" align="middle" lineHeight="125%" anchor="middle" family="&quot;Times New Roman&quot;" size="14px" weight="400" font-style="" opacity="1" y="8.25" transform="rotate(0)"><tspan id="SvgjsTspan1289" dy="17.5" x="50"><tspan id="SvgjsTspan1290" style="">Partition</tspan></tspan></text></g></g><g id="SvgjsG1291" transform="translate(242.5,726.25)"><path id="SvgjsPath1292" d="M 0 0L 134.5 0L 134.5 40L 0 40Z" stroke="none" fill="none"></path><g id="SvgjsG1293"><text id="SvgjsText1294" font-family="&quot;Times New Roman&quot;" text-anchor="middle" font-size="14px" width="135px" fill="#323232" font-weight="400" align="middle" lineHeight="125%" anchor="middle" family="&quot;Times New Roman&quot;" size="14px" weight="400" font-style="" opacity="1" y="8.25" transform="rotate(0)"><tspan id="SvgjsTspan1295" dy="17.5" x="67.5"><tspan id="SvgjsTspan1296" style="">Feature Learning</tspan></tspan></text></g></g><g id="SvgjsG1297" transform="translate(466.4999999999999,726.25)"><path id="SvgjsPath1298" d="M 0 0L 134.5 0L 134.5 40L 0 40Z" stroke="none" fill="none"></path><g id="SvgjsG1299"><text id="SvgjsText1300" font-family="&quot;Times New Roman&quot;" text-anchor="middle" font-size="14px" width="135px" fill="#323232" font-weight="400" align="middle" lineHeight="125%" anchor="middle" family="&quot;Times New Roman&quot;" size="14px" weight="400" font-style="" opacity="1" y="8.25" transform="rotate(0)"><tspan id="SvgjsTspan1301" dy="17.5" x="67.5"><tspan id="SvgjsTspan1302" style="">Formal Verification</tspan></tspan></text></g></g><g id="SvgjsG1303" transform="translate(686.9999999999999,726.25)"><path id="SvgjsPath1304" d="M 0 0L 134.5 0L 134.5 40L 0 40Z" stroke="none" fill="none"></path><g id="SvgjsG1305"><text id="SvgjsText1306" font-family="&quot;Times New Roman&quot;" text-anchor="middle" font-size="14px" width="135px" fill="#323232" font-weight="400" align="middle" lineHeight="125%" anchor="middle" family="&quot;Times New Roman&quot;" size="14px" weight="400" font-style="" opacity="1" y="8.25" transform="rotate(0)"><tspan id="SvgjsTspan1307" dy="17.5" x="67.5"><tspan id="SvgjsTspan1308" style="">Simulation</tspan></tspan></text></g></g><g id="SvgjsG1309" transform="translate(891.5000000000001,726.25)"><path id="SvgjsPath1310" d="M 0 0L 239.5 0L 239.5 40L 0 40Z" stroke="none" fill="none"></path><g id="SvgjsG1311"><text id="SvgjsText1312" font-family="&quot;Times New Roman&quot;" text-anchor="middle" font-size="14px" width="240px" fill="#323232" font-weight="400" align="middle" lineHeight="125%" anchor="middle" family="&quot;Times New Roman&quot;" size="14px" weight="400" font-style="" opacity="1" y="8.25" transform="rotate(0)"><tspan id="SvgjsTspan1313" dy="17.5" x="120"><tspan id="SvgjsTspan1314" style="">Design Space Exploration</tspan></tspan></text></g></g><g id="SvgjsG1315" transform="translate(1148.0000000000005,722)"><path id="SvgjsPath1316" d="M 0 0L 239.5 0L 239.5 40L 0 40Z" stroke="none" fill="none"></path><g id="SvgjsG1317"><text id="SvgjsText1318" font-family="&quot;Times New Roman&quot;" text-anchor="middle" font-size="14px" width="240px" fill="#323232" font-weight="400" align="middle" lineHeight="125%" anchor="middle" family="&quot;Times New Roman&quot;" size="14px" weight="400" font-style="" opacity="1" y="8.25" transform="rotate(0)"><tspan id="SvgjsTspan1319" dy="17.5" x="120"><tspan id="SvgjsTspan1320" style="">Parallelism</tspan></tspan></text></g></g><g id="SvgjsG1321" transform="translate(1353.0000000000005,722)"><path id="SvgjsPath1322" d="M 0 0L 81 0L 81 40L 0 40Z" stroke="none" fill="none"></path><g id="SvgjsG1323"><text id="SvgjsText1324" font-family="&quot;Microsoft YaHei&quot;, 微软雅黑, Arial" text-anchor="middle" font-size="13px" width="81px" fill="#323232" font-weight="400" align="middle" lineHeight="125%" anchor="middle" family="&quot;Microsoft YaHei&quot;, 微软雅黑, Arial" size="13px" weight="400" font-style="" opacity="1" y="9.375" transform="rotate(0)"><tspan id="SvgjsTspan1325" dy="16.25" x="40.5"><tspan id="SvgjsTspan1326" style="">...</tspan></tspan></text></g></g><g id="SvgjsG1327" transform="translate(28,578.6666641235352)"><path id="SvgjsPath1328" d="M 0 4Q 0 0 4 0L 395 0Q 399 0 399 4L 399 56.333335876464844Q 399 60.333335876464844 395 60.333335876464844L 4 60.333335876464844Q 0 60.333335876464844 0 56.333335876464844Z" stroke-dasharray="7.5,3" stroke="rgba(33,41,48,1)" stroke-width="1.5" fill-opacity="1" fill="#fcf9ea"></path><g id="SvgjsG1329"><text id="SvgjsText1330" font-family="&quot;Microsoft YaHei&quot;, 微软雅黑, Arial" text-anchor="middle" font-size="13px" width="379px" fill="#323232" font-weight="700" align="middle" lineHeight="125%" anchor="middle" family="&quot;Microsoft YaHei&quot;, 微软雅黑, Arial" size="13px" weight="700" font-style="" opacity="1" y="19.541667938232422" transform="rotate(0)"><tspan id="SvgjsTspan1331" dy="16.25" x="199.5"><tspan id="SvgjsTspan1332" style="">Yosys, iVerilog</tspan></tspan></text></g></g><g id="SvgjsG1333" transform="translate(537.9999999999999,578.6666641235352)"><path id="SvgjsPath1334" d="M 0 4Q 0 0 4 0L 395 0Q 399 0 399 4L 399 56.333335876464844Q 399 60.333335876464844 395 60.333335876464844L 4 60.333335876464844Q 0 60.333335876464844 0 56.333335876464844Z" stroke-dasharray="7.5,3" stroke="rgba(33,41,48,1)" stroke-width="1.5" fill-opacity="1" fill="#e5f6da"></path><g id="SvgjsG1335"><text id="SvgjsText1336" font-family="&quot;Microsoft YaHei&quot;, 微软雅黑, Arial" text-anchor="middle" font-size="13px" width="379px" fill="#323232" font-weight="700" align="middle" lineHeight="125%" anchor="middle" family="&quot;Microsoft YaHei&quot;, 微软雅黑, Arial" size="13px" weight="700" font-style="" opacity="1" y="19.541667938232422" transform="rotate(0)"><tspan id="SvgjsTspan1337" dy="16.25" x="199.5"><tspan id="SvgjsTspan1338" style="">iMAP, ABC, mockturtle</tspan></tspan></text></g></g><g id="SvgjsG1339" transform="translate(1038.0000000000005,578.6666641235352)"><path id="SvgjsPath1340" d="M 0 4Q 0 0 4 0L 395 0Q 399 0 399 4L 399 56.333335876464844Q 399 60.333335876464844 395 60.333335876464844L 4 60.333335876464844Q 0 60.333335876464844 0 56.333335876464844Z" stroke-dasharray="7.5,3" stroke="rgba(33,41,48,1)" stroke-width="1.5" fill-opacity="1" fill="#d2d6f9"></path><g id="SvgjsG1341"><text id="SvgjsText1342" font-family="&quot;Microsoft YaHei&quot;, 微软雅黑, Arial" text-anchor="middle" font-size="13px" width="379px" fill="#323232" font-weight="700" align="middle" lineHeight="125%" anchor="middle" family="&quot;Microsoft YaHei&quot;, 微软雅黑, Arial" size="13px" weight="700" font-style="" opacity="1" y="19.541667938232422" transform="rotate(0)"><tspan id="SvgjsTspan1343" dy="16.25" x="199.5"><tspan id="SvgjsTspan1344" style="">iMAP, ABC / iEDA, VPR</tspan></tspan></text></g></g><g id="SvgjsG1345" transform="translate(191,529.4999961853027)"><path id="SvgjsPath1346" d="M 30 0L 60 15.15000228881836L 40.2 15.15000228881836L 40.2 33.66667175292969L 19.8 33.66667175292969L 19.8 15.15000228881836L 0 15.15000228881836L 30 0Z" stroke="rgba(33,41,48,1)" stroke-width="1.5" fill-opacity="1" fill="#ffffff"></path><g id="SvgjsG1347"><text id="SvgjsText1348" font-family="&quot;Microsoft YaHei&quot;, 微软雅黑, Arial" text-anchor="middle" font-size="13px" width="84px" fill="#323232" font-weight="400" align="middle" lineHeight="125%" anchor="middle" family="&quot;Microsoft YaHei&quot;, 微软雅黑, Arial" size="13px" weight="400" font-style="" opacity="1" y="7.891669464111327" transform="rotate(0)"></text></g></g><g id="SvgjsG1349" transform="translate(707.4999999999999,529.4999961853027)"><path id="SvgjsPath1350" d="M 30 0L 60 15.15000228881836L 40.2 15.15000228881836L 40.2 33.66667175292969L 19.8 33.66667175292969L 19.8 15.15000228881836L 0 15.15000228881836L 30 0Z" stroke="rgba(33,41,48,1)" stroke-width="1.5" fill-opacity="1" fill="#ffffff"></path><g id="SvgjsG1351"><text id="SvgjsText1352" font-family="&quot;Microsoft YaHei&quot;, 微软雅黑, Arial" text-anchor="middle" font-size="13px" width="84px" fill="#323232" font-weight="400" align="middle" lineHeight="125%" anchor="middle" family="&quot;Microsoft YaHei&quot;, 微软雅黑, Arial" size="13px" weight="400" font-style="" opacity="1" y="7.891669464111327" transform="rotate(0)"></text></g></g><g id="SvgjsG1353" transform="translate(1224.0000000000005,529.4999961853027)"><path id="SvgjsPath1354" d="M 30 0L 60 15.15000228881836L 40.2 15.15000228881836L 40.2 33.66667175292969L 19.8 33.66667175292969L 19.8 15.15000228881836L 0 15.15000228881836L 30 0Z" stroke="rgba(33,41,48,1)" stroke-width="1.5" fill-opacity="1" fill="#ffffff"></path><g id="SvgjsG1355"><text id="SvgjsText1356" font-family="&quot;Microsoft YaHei&quot;, 微软雅黑, Arial" text-anchor="middle" font-size="13px" width="84px" fill="#323232" font-weight="400" align="middle" lineHeight="125%" anchor="middle" family="&quot;Microsoft YaHei&quot;, 微软雅黑, Arial" size="13px" weight="400" font-style="" opacity="1" y="7.891669464111327" transform="rotate(0)"></text></g></g><g id="SvgjsG1357"></g></svg>