<svg id="SvgjsSvg1316" width="667.909090909091" height="712.875" xmlns="http://www.w3.org/2000/svg" version="1.1" xmlns:xlink="http://www.w3.org/1999/xlink" xmlns:svgjs="http://svgjs.com/svgjs"><defs id="SvgjsDefs1317"><pattern patternUnits="userSpaceOnUse" id="pattern_mark_0" width="300" height="300"><text x="150" y="100" fill="rgba(229,229,229,0.8)" font-size="18" transform="rotate(-45, 150, 150)" style="dominant-baseline: middle; text-anchor: middle;"></text></pattern><pattern patternUnits="userSpaceOnUse" id="pattern_mark_1" width="300" height="300"><text x="150" y="200" fill="rgba(229,229,229,0.8)" font-size="18" transform="rotate(-45, 150, 150)" style="dominant-baseline: middle; text-anchor: middle;"></text></pattern><marker id="SvgjsMarker1349" markerWidth="13" markerHeight="9" refX="9.5" refY="4.5" viewBox="0 0 13 9" orient="auto" markerUnits="userSpaceOnUse" stroke-dasharray="0,0"><path id="SvgjsPath1350" d="M0,0 L13,4.5 L0,9 L0,0" fill="#323232" stroke="#323232" stroke-width="1"></path></marker><marker id="SvgjsMarker1353" markerWidth="13" markerHeight="9" refX="9.5" refY="4.5" viewBox="0 0 13 9" orient="auto" markerUnits="userSpaceOnUse" stroke-dasharray="0,0"><path id="SvgjsPath1354" d="M0,0 L13,4.5 L0,9 L0,0" fill="#323232" stroke="#323232" stroke-width="1"></path></marker><marker id="SvgjsMarker1523" markerWidth="13" markerHeight="9" refX="9.5" refY="4.5" viewBox="0 0 13 9" orient="auto" markerUnits="userSpaceOnUse" stroke-dasharray="0,0"><path id="SvgjsPath1524" d="M0,0 L13,4.5 L0,9 L0,0" fill="#323232" stroke="#323232" stroke-width="1"></path></marker><marker id="SvgjsMarker1619" markerWidth="13" markerHeight="9" refX="9.5" refY="4.5" viewBox="0 0 13 9" orient="auto" markerUnits="userSpaceOnUse" stroke-dasharray="0,0"><path id="SvgjsPath1620" d="M0,0 L13,4.5 L0,9 L0,0" fill="#323232" stroke="#323232" stroke-width="1"></path></marker></defs><rect id="svgbackgroundid" width="667.909090909091" height="712.875" fill="transparent"></rect><rect id="SvgjsRect1319" width="667.909090909091" height="712.875" fill="url(#pattern_mark_0)"></rect><rect id="SvgjsRect1320" width="667.909090909091" height="712.875" fill="url(#pattern_mark_1)"></rect><g id="SvgjsG1321" transform="translate(25,72.125)"><path id="SvgjsPath1322" d="M 0 0L 61 0L 77 16L 77 91L 0 91L 0 0Z" stroke="none" fill-opacity="1" fill="#fcf9ea"></path><path id="SvgjsPath1323" d="M 61 0L 61 16L 77 16Z" stroke="none" fill-opacity="1" fill="#e4d089"></path><path id="SvgjsPath1324" d="M 0 0L 61 0L 77 16L 77 91L 0 91L 0 0Z" stroke="none" fill="none"></path><g id="SvgjsG1325"><text id="SvgjsText1326" font-family="&quot;Microsoft YaHei&quot;, 微软雅黑, Arial" text-anchor="middle" font-size="13px" width="57px" fill="#323232" font-weight="700" align="middle" lineHeight="125%" anchor="middle" family="&quot;Microsoft YaHei&quot;, 微软雅黑, Arial" size="13px" weight="700" font-style="" opacity="1" y="34.875" transform="rotate(0)"><tspan id="SvgjsTspan1327" dy="16.25" x="38.5"><tspan id="SvgjsTspan1328" style="font-weight: bold;">Verilog</tspan></tspan></text></g></g><g id="SvgjsG1329" transform="translate(25,316.625)"><path id="SvgjsPath1330" d="M 0 0L 61 0L 77 16L 77 91L 0 91L 0 0Z" stroke="none" fill-opacity="1" fill="#e5f6da"></path><path id="SvgjsPath1331" d="M 61 0L 61 16L 77 16Z" stroke="none" fill-opacity="1" fill="#e4d089"></path><path id="SvgjsPath1332" d="M 0 0L 61 0L 77 16L 77 91L 0 91L 0 0Z" stroke="none" fill="none"></path><g id="SvgjsG1333"><text id="SvgjsText1334" font-family="&quot;Microsoft YaHei&quot;, 微软雅黑, Arial" text-anchor="middle" font-size="13px" width="57px" fill="#323232" font-weight="400" align="middle" lineHeight="125%" anchor="middle" family="&quot;Microsoft YaHei&quot;, 微软雅黑, Arial" size="13px" weight="400" font-style="" opacity="1" y="26.375" transform="rotate(0)"><tspan id="SvgjsTspan1335" dy="16.25" x="38.5"><tspan id="SvgjsTspan1336" style="font-weight: bold;">Boolean </tspan></tspan><tspan id="SvgjsTspan1337" dy="16.25" x="38.5"><tspan id="SvgjsTspan1338" style="font-weight: bold;">Circuit</tspan></tspan></text></g></g><g id="SvgjsG1339" transform="translate(25,558.1875)"><path id="SvgjsPath1340" d="M 0 0L 61 0L 77 16L 77 91L 0 91L 0 0Z" stroke="none" fill-opacity="1" fill="#d2d6f9"></path><path id="SvgjsPath1341" d="M 61 0L 61 16L 77 16Z" stroke="none" fill-opacity="1" fill="#e4d089"></path><path id="SvgjsPath1342" d="M 0 0L 61 0L 77 16L 77 91L 0 91L 0 0Z" stroke="none" fill="none"></path><g id="SvgjsG1343"><text id="SvgjsText1344" font-family="&quot;Microsoft YaHei&quot;, 微软雅黑, Arial" text-anchor="middle" font-size="13px" width="57px" fill="#323232" font-weight="400" align="middle" lineHeight="125%" anchor="middle" family="&quot;Microsoft YaHei&quot;, 微软雅黑, Arial" size="13px" weight="400" font-style="" opacity="1" y="34.875" transform="rotate(0)"><tspan id="SvgjsTspan1345" dy="16.25" x="38.5"><tspan id="SvgjsTspan1346" style="font-weight: bold;">Netlist</tspan></tspan></text></g></g><g id="SvgjsG1347"><path id="SvgjsPath1348" d="M63.5 163.125L63.5 239.87499999999997L63.5 239.87499999999997L63.5 314.67499999999995" stroke="#323232" stroke-width="1.5" fill="none" marker-end="url(#SvgjsMarker1349)"></path></g><g id="SvgjsG1351"><path id="SvgjsPath1352" d="M63.5 407.625L63.5 482.90625L63.5 482.90625L63.5 556.2375" stroke="#323232" stroke-width="1.5" fill="none" marker-end="url(#SvgjsMarker1353)"></path></g><g id="SvgjsG1355" transform="translate(114.90909090909099,25)"><path id="SvgjsPath1356" d="M 0 4Q 0 0 4 0L 523.9999999999991 0Q 527.9999999999991 0 527.9999999999991 4L 527.9999999999991 180.49999999999994Q 527.9999999999991 184.49999999999994 523.9999999999991 184.49999999999994L 4 184.49999999999994Q 0 184.49999999999994 0 180.49999999999994Z" stroke-dasharray="7.5,3" stroke="rgba(33,41,48,1)" stroke-width="1.5" fill-opacity="1" fill="#fcf9ea"></path><g id="SvgjsG1357"><text id="SvgjsText1358" font-family="&quot;Microsoft YaHei&quot;, 微软雅黑, Arial" text-anchor="middle" font-size="13px" width="508px" fill="#323232" font-weight="400" align="middle" lineHeight="125%" anchor="middle" family="&quot;Microsoft YaHei&quot;, 微软雅黑, Arial" size="13px" weight="400" font-style="" opacity="1" y="81.62499999999997" transform="rotate(0)"></text></g></g><g id="SvgjsG1359" transform="translate(114.90909090909099,25)"><path id="SvgjsPath1360" d="M 0 0L 527.9999999999991 0L 527.9999999999991 40L 0 40Z" stroke="none" fill="none"></path><g id="SvgjsG1361"><text id="SvgjsText1362" font-family="&quot;Times New Roman&quot;" text-anchor="middle" font-size="18px" width="528px" fill="#323232" font-weight="700" align="middle" lineHeight="125%" anchor="middle" family="&quot;Times New Roman&quot;" size="18px" weight="700" font-style="" opacity="1" y="4.25" transform="rotate(0)"><tspan id="SvgjsTspan1363" dy="22.5" x="264"><tspan id="SvgjsTspan1364" style="">Architecture-layer Synthesis</tspan></tspan></text></g></g><g id="SvgjsG1365" transform="translate(147.90909090909008,67.25000000000003)"><path id="SvgjsPath1366" d="M 0 4Q 0 0 4 0L 118 0Q 122 0 122 4L 122 131.12499999999997Q 122 135.12499999999997 118 135.12499999999997L 4 135.12499999999997Q 0 135.12499999999997 0 131.12499999999997Z" stroke="rgba(33,41,48,1)" stroke-width="1.5" fill-opacity="1" fill="#ffffff"></path><g id="SvgjsG1367"><text id="SvgjsText1368" font-family="&quot;Times New Roman&quot;" text-anchor="middle" font-size="13px" width="102px" fill="#323232" font-weight="400" align="middle" lineHeight="125%" anchor="middle" family="&quot;Times New Roman&quot;" size="13px" weight="400" font-style="" opacity="1" y="56.937499999999986" transform="rotate(0)"></text></g></g><g id="SvgjsG1369" transform="translate(147.90909090909008,65.00000000000003)"><path id="SvgjsPath1370" d="M 0 0L 122 0L 122 40L 0 40Z" stroke="none" fill="none"></path><g id="SvgjsG1371"><text id="SvgjsText1372" font-family="&quot;Times New Roman&quot;" text-anchor="middle" font-size="16px" width="122px" fill="#323232" font-weight="400" align="middle" lineHeight="125%" anchor="middle" family="&quot;Times New Roman&quot;" size="16px" weight="400" font-style="" opacity="1" y="6" transform="rotate(0)"><tspan id="SvgjsTspan1373" dy="20" x="61"><tspan id="SvgjsTspan1374" style="font-weight: bold;">Tools</tspan></tspan></text></g></g><g id="SvgjsG1375" transform="translate(496.9090909090901,67.25)"><path id="SvgjsPath1376" d="M 0 4Q 0 0 4 0L 118 0Q 122 0 122 4L 122 131.12499999999997Q 122 135.12499999999997 118 135.12499999999997L 4 135.12499999999997Q 0 135.12499999999997 0 131.12499999999997Z" stroke="rgba(33,41,48,1)" stroke-width="1.5" fill-opacity="1" fill="#ffffff"></path><g id="SvgjsG1377"><text id="SvgjsText1378" font-family="&quot;Times New Roman&quot;" text-anchor="middle" font-size="13px" width="102px" fill="#323232" font-weight="400" align="middle" lineHeight="125%" anchor="middle" family="&quot;Times New Roman&quot;" size="13px" weight="400" font-style="" opacity="1" y="56.937499999999986" transform="rotate(0)"></text></g></g><g id="SvgjsG1379" transform="translate(496.9090909090901,65)"><path id="SvgjsPath1380" d="M 0 0L 122 0L 122 40L 0 40Z" stroke="none" fill="none"></path><g id="SvgjsG1381"><text id="SvgjsText1382" font-family="&quot;Times New Roman&quot;" text-anchor="middle" font-size="16px" width="122px" fill="#323232" font-weight="400" align="middle" lineHeight="125%" anchor="middle" family="&quot;Times New Roman&quot;" size="16px" weight="400" font-style="" opacity="1" y="6" transform="rotate(0)"><tspan id="SvgjsTspan1383" dy="20" x="61"><tspan id="SvgjsTspan1384" style="font-weight: bold;">Database</tspan></tspan></text></g></g><g id="SvgjsG1385" transform="translate(322.4090909090901,67.25000000000003)"><path id="SvgjsPath1386" d="M 0 4Q 0 0 4 0L 118 0Q 122 0 122 4L 122 131.12499999999997Q 122 135.12499999999997 118 135.12499999999997L 4 135.12499999999997Q 0 135.12499999999997 0 131.12499999999997Z" stroke="rgba(33,41,48,1)" stroke-width="1.5" fill-opacity="1" fill="#ffffff"></path><g id="SvgjsG1387"><text id="SvgjsText1388" font-family="&quot;Times New Roman&quot;" text-anchor="middle" font-size="13px" width="102px" fill="#323232" font-weight="400" align="middle" lineHeight="125%" anchor="middle" family="&quot;Times New Roman&quot;" size="13px" weight="400" font-style="" opacity="1" y="56.937499999999986" transform="rotate(0)"></text></g></g><g id="SvgjsG1389" transform="translate(322.4090909090901,65.00000000000003)"><path id="SvgjsPath1390" d="M 0 0L 122 0L 122 40L 0 40Z" stroke="none" fill="none"></path><g id="SvgjsG1391"><text id="SvgjsText1392" font-family="&quot;Times New Roman&quot;" text-anchor="middle" font-size="16px" width="122px" fill="#323232" font-weight="400" align="middle" lineHeight="125%" anchor="middle" family="&quot;Times New Roman&quot;" size="16px" weight="400" font-style="" opacity="1" y="6" transform="rotate(0)"><tspan id="SvgjsTspan1393" dy="20" x="61"><tspan id="SvgjsTspan1394" style="font-weight: bold;">Operators</tspan></tspan></text></g></g><g id="SvgjsG1395" transform="translate(158.90909090909008,117.99999999999997)"><path id="SvgjsPath1396" d="M 0 0L 100 0L 100 49L 0 49Z" stroke="none" fill="none"></path><g id="SvgjsG1397"><text id="SvgjsText1398" font-family="&quot;Microsoft YaHei&quot;, 微软雅黑, Arial" text-anchor="middle" font-size="13px" width="100px" fill="#323232" font-weight="400" align="middle" lineHeight="125%" anchor="middle" family="&quot;Microsoft YaHei&quot;, 微软雅黑, Arial" size="13px" weight="400" font-style="" opacity="1" y="-2.625" transform="rotate(0)"><tspan id="SvgjsTspan1399" dy="16.25" x="50"><tspan id="SvgjsTspan1400" style="">Yosys</tspan></tspan><tspan id="SvgjsTspan1401" dy="16.25" x="50"><tspan id="SvgjsTspan1402" style="">iVerilog</tspan></tspan><tspan id="SvgjsTspan1403" dy="16.25" x="50"><tspan id="SvgjsTspan1404" style="">...</tspan></tspan></text></g></g><g id="SvgjsG1405" transform="translate(333.4090909090901,105.00000000000003)"><path id="SvgjsPath1406" d="M 0 0L 100 0L 100 81L 0 81Z" stroke="none" fill="none"></path><g id="SvgjsG1407"><text id="SvgjsText1408" font-family="&quot;Microsoft YaHei&quot;, 微软雅黑, Arial" text-anchor="middle" font-size="13px" width="100px" fill="#323232" font-weight="400" align="middle" lineHeight="125%" anchor="middle" family="&quot;Microsoft YaHei&quot;, 微软雅黑, Arial" size="13px" weight="400" font-style="" opacity="1" y="-2.625" transform="rotate(0)"><tspan id="SvgjsTspan1409" dy="16.25" x="50"><tspan id="SvgjsTspan1410" style="">Optimization</tspan></tspan><tspan id="SvgjsTspan1411" dy="16.25" x="50"><tspan id="SvgjsTspan1412" style="">Simulation</tspan></tspan><tspan id="SvgjsTspan1413" dy="16.25" x="50"><tspan id="SvgjsTspan1414" style="">Verification</tspan></tspan><tspan id="SvgjsTspan1415" dy="16.25" x="50"><tspan id="SvgjsTspan1416" style="">Tech Mapping</tspan></tspan><tspan id="SvgjsTspan1417" dy="16.25" x="50"><tspan id="SvgjsTspan1418" style="">...</tspan></tspan></text></g></g><g id="SvgjsG1419" transform="translate(509.9090909090901,109.99999999999997)"><path id="SvgjsPath1420" d="M 0 0L 100 0L 100 65L 0 65Z" stroke="none" fill="none"></path><g id="SvgjsG1421"><text id="SvgjsText1422" font-family="&quot;Microsoft YaHei&quot;, 微软雅黑, Arial" text-anchor="middle" font-size="13px" width="100px" fill="#323232" font-weight="400" align="middle" lineHeight="125%" anchor="middle" family="&quot;Microsoft YaHei&quot;, 微软雅黑, Arial" size="13px" weight="400" font-style="" opacity="1" y="-2.625" transform="rotate(0)"><tspan id="SvgjsTspan1423" dy="16.25" x="50"><tspan id="SvgjsTspan1424" style="">AST</tspan></tspan><tspan id="SvgjsTspan1425" dy="16.25" x="50"><tspan id="SvgjsTspan1426" style="">RTL IR</tspan></tspan><tspan id="SvgjsTspan1427" dy="16.25" x="50"><tspan id="SvgjsTspan1428" style="">Logic Network</tspan></tspan><tspan id="SvgjsTspan1429" dy="16.25" x="50"><tspan id="SvgjsTspan1430" style="">...</tspan></tspan></text></g></g><g id="SvgjsG1431" transform="translate(284.03409090909054,112.49999999999997)"><path id="SvgjsPath1432" d="M 0 19.799999999999997L 13.337499999999494 19.799999999999997L 13.337499999999494 0L 24.249999999999087 30L 13.337499999999494 60L 13.337499999999494 40.199999999999996L 0 40.199999999999996L 0 19.799999999999997Z" stroke="rgba(33,41,48,1)" stroke-width="1.5" fill-opacity="1" fill="#ffffff"></path><g id="SvgjsG1433"><text id="SvgjsText1434" font-family="&quot;Microsoft YaHei&quot;, 微软雅黑, Arial" text-anchor="middle" font-size="13px" width="25px" fill="#323232" font-weight="400" align="middle" lineHeight="125%" anchor="middle" family="&quot;Microsoft YaHei&quot;, 微软雅黑, Arial" size="13px" weight="400" font-style="" opacity="1" y="19.374999999999996" transform="rotate(0)"></text></g></g><g id="SvgjsG1435" transform="matrix(0.766044443118978,0.6427876096865393,-0.6427876096865393,0.766044443118978,474.53487834011634,98.28062247573217)"><path id="SvgjsPath1436" d="M 0 10.436250000000008L 13.337499999999494 10.436250000000008L 13.337499999999494 0L 24.249999999999087 15.812500000000014L 13.337499999999494 31.62500000000003L 13.337499999999494 21.188750000000017L 0 21.188750000000017L 0 10.436250000000008Z" stroke="rgba(33,41,48,1)" stroke-width="1.5" fill-opacity="1" fill="#ffffff"></path><g id="SvgjsG1437"><text id="SvgjsText1438" font-family="&quot;Microsoft YaHei&quot;, 微软雅黑, Arial" text-anchor="middle" font-size="13px" width="25px" fill="#323232" font-weight="400" align="middle" lineHeight="125%" anchor="middle" family="&quot;Microsoft YaHei&quot;, 微软雅黑, Arial" size="13px" weight="400" font-style="" opacity="1" y="5.187500000000012" transform="rotate(0)"></text></g></g><g id="SvgjsG1439" transform="matrix(-0.8191520442889916,0.5735764363510464,-0.5735764363510464,-0.8191520442889916,493.66098407156977,167.18572740956353)"><path id="SvgjsPath1440" d="M 0 10.436250000000008L 13.337499999999494 10.436250000000008L 13.337499999999494 0L 24.249999999999087 15.812500000000014L 13.337499999999494 31.62500000000003L 13.337499999999494 21.188750000000017L 0 21.188750000000017L 0 10.436250000000008Z" stroke="rgba(33,41,48,1)" stroke-width="1.5" fill-opacity="1" fill="#ffffff"></path><g id="SvgjsG1441"><text id="SvgjsText1442" font-family="&quot;Microsoft YaHei&quot;, 微软雅黑, Arial" text-anchor="middle" font-size="13px" width="25px" fill="#323232" font-weight="400" align="middle" lineHeight="125%" anchor="middle" family="&quot;Microsoft YaHei&quot;, 微软雅黑, Arial" size="13px" weight="400" font-style="" opacity="1" y="5.187500000000012" transform="rotate(0)"></text></g></g><g id="SvgjsG1443" transform="translate(114.90909090909099,262.75)"><path id="SvgjsPath1444" d="M 0 4Q 0 0 4 0L 523.9999999999991 0Q 527.9999999999991 0 527.9999999999991 4L 527.9999999999991 180.49999999999994Q 527.9999999999991 184.49999999999994 523.9999999999991 184.49999999999994L 4 184.49999999999994Q 0 184.49999999999994 0 180.49999999999994Z" stroke-dasharray="7.5,3" stroke="rgba(33,41,48,1)" stroke-width="1.5" fill-opacity="1" fill="#e5f6da"></path><g id="SvgjsG1445"><text id="SvgjsText1446" font-family="&quot;Microsoft YaHei&quot;, 微软雅黑, Arial" text-anchor="middle" font-size="13px" width="508px" fill="#323232" font-weight="400" align="middle" lineHeight="125%" anchor="middle" family="&quot;Microsoft YaHei&quot;, 微软雅黑, Arial" size="13px" weight="400" font-style="" opacity="1" y="81.62499999999997" transform="rotate(0)"></text></g></g><g id="SvgjsG1447" transform="translate(114.90909090909099,262.75)"><path id="SvgjsPath1448" d="M 0 0L 527.9999999999991 0L 527.9999999999991 40L 0 40Z" stroke="none" fill="none"></path><g id="SvgjsG1449"><text id="SvgjsText1450" font-family="&quot;Times New Roman&quot;" text-anchor="middle" font-size="18px" width="528px" fill="#323232" font-weight="700" align="middle" lineHeight="125%" anchor="middle" family="&quot;Times New Roman&quot;" size="18px" weight="700" font-style="" opacity="1" y="4.25" transform="rotate(0)"><tspan id="SvgjsTspan1451" dy="22.5" x="264"><tspan id="SvgjsTspan1452" style="">Logic-layer Synthesis</tspan></tspan></text></g></g><g id="SvgjsG1453" transform="translate(147.90909090909008,305)"><path id="SvgjsPath1454" d="M 0 4Q 0 0 4 0L 118 0Q 122 0 122 4L 122 131.12499999999997Q 122 135.12499999999997 118 135.12499999999997L 4 135.12499999999997Q 0 135.12499999999997 0 131.12499999999997Z" stroke="rgba(33,41,48,1)" stroke-width="1.5" fill-opacity="1" fill="#ffffff"></path><g id="SvgjsG1455"><text id="SvgjsText1456" font-family="&quot;Times New Roman&quot;" text-anchor="middle" font-size="13px" width="102px" fill="#323232" font-weight="400" align="middle" lineHeight="125%" anchor="middle" family="&quot;Times New Roman&quot;" size="13px" weight="400" font-style="" opacity="1" y="56.937499999999986" transform="rotate(0)"></text></g></g><g id="SvgjsG1457" transform="translate(147.90909090909008,302.75)"><path id="SvgjsPath1458" d="M 0 0L 122 0L 122 40L 0 40Z" stroke="none" fill="none"></path><g id="SvgjsG1459"><text id="SvgjsText1460" font-family="&quot;Times New Roman&quot;" text-anchor="middle" font-size="16px" width="122px" fill="#323232" font-weight="400" align="middle" lineHeight="125%" anchor="middle" family="&quot;Times New Roman&quot;" size="16px" weight="400" font-style="" opacity="1" y="6" transform="rotate(0)"><tspan id="SvgjsTspan1461" dy="20" x="61"><tspan id="SvgjsTspan1462" style="font-weight: bold;">Tools</tspan></tspan></text></g></g><g id="SvgjsG1463" transform="translate(496.9090909090901,305)"><path id="SvgjsPath1464" d="M 0 4Q 0 0 4 0L 118 0Q 122 0 122 4L 122 131.12499999999997Q 122 135.12499999999997 118 135.12499999999997L 4 135.12499999999997Q 0 135.12499999999997 0 131.12499999999997Z" stroke="rgba(33,41,48,1)" stroke-width="1.5" fill-opacity="1" fill="#ffffff"></path><g id="SvgjsG1465"><text id="SvgjsText1466" font-family="&quot;Times New Roman&quot;" text-anchor="middle" font-size="13px" width="102px" fill="#323232" font-weight="400" align="middle" lineHeight="125%" anchor="middle" family="&quot;Times New Roman&quot;" size="13px" weight="400" font-style="" opacity="1" y="56.937499999999986" transform="rotate(0)"></text></g></g><g id="SvgjsG1467" transform="translate(496.9090909090901,302.75)"><path id="SvgjsPath1468" d="M 0 0L 122 0L 122 40L 0 40Z" stroke="none" fill="none"></path><g id="SvgjsG1469"><text id="SvgjsText1470" font-family="&quot;Times New Roman&quot;" text-anchor="middle" font-size="16px" width="122px" fill="#323232" font-weight="400" align="middle" lineHeight="125%" anchor="middle" family="&quot;Times New Roman&quot;" size="16px" weight="400" font-style="" opacity="1" y="6" transform="rotate(0)"><tspan id="SvgjsTspan1471" dy="20" x="61"><tspan id="SvgjsTspan1472" style="font-weight: bold;">Database</tspan></tspan></text></g></g><g id="SvgjsG1473" transform="translate(322.4090909090901,305)"><path id="SvgjsPath1474" d="M 0 4Q 0 0 4 0L 118 0Q 122 0 122 4L 122 131.12499999999997Q 122 135.12499999999997 118 135.12499999999997L 4 135.12499999999997Q 0 135.12499999999997 0 131.12499999999997Z" stroke="rgba(33,41,48,1)" stroke-width="1.5" fill-opacity="1" fill="#ffffff"></path><g id="SvgjsG1475"><text id="SvgjsText1476" font-family="&quot;Times New Roman&quot;" text-anchor="middle" font-size="13px" width="102px" fill="#323232" font-weight="400" align="middle" lineHeight="125%" anchor="middle" family="&quot;Times New Roman&quot;" size="13px" weight="400" font-style="" opacity="1" y="56.937499999999986" transform="rotate(0)"></text></g></g><g id="SvgjsG1477" transform="translate(322.4090909090901,302.75)"><path id="SvgjsPath1478" d="M 0 0L 122 0L 122 40L 0 40Z" stroke="none" fill="none"></path><g id="SvgjsG1479"><text id="SvgjsText1480" font-family="&quot;Times New Roman&quot;" text-anchor="middle" font-size="16px" width="122px" fill="#323232" font-weight="400" align="middle" lineHeight="125%" anchor="middle" family="&quot;Times New Roman&quot;" size="16px" weight="400" font-style="" opacity="1" y="6" transform="rotate(0)"><tspan id="SvgjsTspan1481" dy="20" x="61"><tspan id="SvgjsTspan1482" style="font-weight: bold;">Operators</tspan></tspan></text></g></g><g id="SvgjsG1483" transform="translate(158.90909090909008,355.75)"><path id="SvgjsPath1484" d="M 0 0L 100 0L 100 49L 0 49Z" stroke="none" fill="none"></path><g id="SvgjsG1485"><text id="SvgjsText1486" font-family="&quot;Microsoft YaHei&quot;, 微软雅黑, Arial" text-anchor="middle" font-size="13px" width="100px" fill="#323232" font-weight="400" align="middle" lineHeight="125%" anchor="middle" family="&quot;Microsoft YaHei&quot;, 微软雅黑, Arial" size="13px" weight="400" font-style="" opacity="1" y="-2.625" transform="rotate(0)"><tspan id="SvgjsTspan1487" dy="16.25" x="50"><tspan id="SvgjsTspan1488" style="">abc-Berkeley</tspan></tspan><tspan id="SvgjsTspan1489" dy="16.25" x="50"><tspan id="SvgjsTspan1490" style="">lsils-EPFL</tspan></tspan><tspan id="SvgjsTspan1491" dy="16.25" x="50"><tspan id="SvgjsTspan1492" style="">...</tspan></tspan></text></g></g><g id="SvgjsG1493" transform="translate(328.90909090909054,360.25)"><path id="SvgjsPath1494" d="M 0 0L 100 0L 100 40L 0 40Z" stroke="none" fill="none"></path><g id="SvgjsG1495"><text id="SvgjsText1496" font-family="&quot;Microsoft YaHei&quot;, 微软雅黑, Arial" text-anchor="middle" font-size="13px" width="100px" fill="#323232" font-weight="400" align="middle" lineHeight="125%" anchor="middle" family="&quot;Microsoft YaHei&quot;, 微软雅黑, Arial" size="13px" weight="400" font-style="" opacity="1" y="0.875" transform="rotate(0)"><tspan id="SvgjsTspan1497" dy="16.25" x="50"><tspan id="SvgjsTspan1498" style="">Optimization</tspan></tspan><tspan id="SvgjsTspan1499" dy="16.25" x="50"><tspan id="SvgjsTspan1500" style="">Tech Mapping</tspan></tspan></text></g></g><g id="SvgjsG1501" transform="translate(509.9090909090901,360.25)"><path id="SvgjsPath1502" d="M 0 0L 100 0L 100 40L 0 40Z" stroke="none" fill="none"></path><g id="SvgjsG1503"><text id="SvgjsText1504" font-family="&quot;Microsoft YaHei&quot;, 微软雅黑, Arial" text-anchor="middle" font-size="13px" width="100px" fill="#323232" font-weight="400" align="middle" lineHeight="125%" anchor="middle" family="&quot;Microsoft YaHei&quot;, 微软雅黑, Arial" size="13px" weight="400" font-style="" opacity="1" y="0.875" transform="rotate(0)"><tspan id="SvgjsTspan1505" dy="16.25" x="50"><tspan id="SvgjsTspan1506" style="">Logic Network</tspan></tspan><tspan id="SvgjsTspan1507" dy="16.25" x="50"><tspan id="SvgjsTspan1508" style="">Gate Netlist</tspan></tspan></text></g></g><g id="SvgjsG1509" transform="translate(284.03409090909054,350.25)"><path id="SvgjsPath1510" d="M 0 19.799999999999997L 13.337499999999494 19.799999999999997L 13.337499999999494 0L 24.249999999999087 30L 13.337499999999494 60L 13.337499999999494 40.199999999999996L 0 40.199999999999996L 0 19.799999999999997Z" stroke="rgba(33,41,48,1)" stroke-width="1.5" fill-opacity="1" fill="#ffffff"></path><g id="SvgjsG1511"><text id="SvgjsText1512" font-family="&quot;Microsoft YaHei&quot;, 微软雅黑, Arial" text-anchor="middle" font-size="13px" width="25px" fill="#323232" font-weight="400" align="middle" lineHeight="125%" anchor="middle" family="&quot;Microsoft YaHei&quot;, 微软雅黑, Arial" size="13px" weight="400" font-style="" opacity="1" y="19.374999999999996" transform="rotate(0)"></text></g></g><g id="SvgjsG1513" transform="matrix(0.766044443118978,0.6427876096865393,-0.6427876096865393,0.766044443118978,474.53487834011634,336.0306224757322)"><path id="SvgjsPath1514" d="M 0 10.436250000000008L 13.337499999999494 10.436250000000008L 13.337499999999494 0L 24.249999999999087 15.812500000000014L 13.337499999999494 31.62500000000003L 13.337499999999494 21.188750000000017L 0 21.188750000000017L 0 10.436250000000008Z" stroke="rgba(33,41,48,1)" stroke-width="1.5" fill-opacity="1" fill="#ffffff"></path><g id="SvgjsG1515"><text id="SvgjsText1516" font-family="&quot;Microsoft YaHei&quot;, 微软雅黑, Arial" text-anchor="middle" font-size="13px" width="25px" fill="#323232" font-weight="400" align="middle" lineHeight="125%" anchor="middle" family="&quot;Microsoft YaHei&quot;, 微软雅黑, Arial" size="13px" weight="400" font-style="" opacity="1" y="5.187500000000012" transform="rotate(0)"></text></g></g><g id="SvgjsG1517" transform="matrix(-0.8191520442889916,0.5735764363510464,-0.5735764363510464,-0.8191520442889916,493.66098407156977,404.9357274095635)"><path id="SvgjsPath1518" d="M 0 10.436250000000008L 13.337499999999494 10.436250000000008L 13.337499999999494 0L 24.249999999999087 15.812500000000014L 13.337499999999494 31.62500000000003L 13.337499999999494 21.188750000000017L 0 21.188750000000017L 0 10.436250000000008Z" stroke="rgba(33,41,48,1)" stroke-width="1.5" fill-opacity="1" fill="#ffffff"></path><g id="SvgjsG1519"><text id="SvgjsText1520" font-family="&quot;Microsoft YaHei&quot;, 微软雅黑, Arial" text-anchor="middle" font-size="13px" width="25px" fill="#323232" font-weight="400" align="middle" lineHeight="125%" anchor="middle" family="&quot;Microsoft YaHei&quot;, 微软雅黑, Arial" size="13px" weight="400" font-style="" opacity="1" y="5.187500000000012" transform="rotate(0)"></text></g></g><g id="SvgjsG1521"><path id="SvgjsPath1522" d="M378.90909090909054 210.24999999999997L378.90909090909054 236.12499999999997L378.90909090909054 236.12499999999997L378.90909090909054 260.04999999999995" stroke="#323232" stroke-width="1.5" fill="none" marker-end="url(#SvgjsMarker1523)"></path><rect id="SvgjsRect1525" width="185.666666" height="17" x="286.07575790909056" y="225.9485915492957" fill="#ffffff"></rect><text id="SvgjsText1526" font-family="&quot;Microsoft YaHei&quot;, 微软雅黑, Arial" text-anchor="middle" font-size="13px" width="185.667px" fill="#323232" font-weight="700" align="top" lineHeight="16px" anchor="middle" family="&quot;Microsoft YaHei&quot;, 微软雅黑, Arial" size="13px" weight="700" font-style="" opacity="1" y="223.3235915492957" transform="rotate(0)"><tspan id="SvgjsTspan1527" dy="16.25" x="378.57575790909056"><tspan id="SvgjsTspan1528" style="">Bit Blasting / Logic mapping</tspan></tspan></text></g><g id="SvgjsG1529" transform="translate(114.90909090909099,503.375)"><path id="SvgjsPath1530" d="M 0 4Q 0 0 4 0L 523.9999999999991 0Q 527.9999999999991 0 527.9999999999991 4L 527.9999999999991 180.49999999999994Q 527.9999999999991 184.49999999999994 523.9999999999991 184.49999999999994L 4 184.49999999999994Q 0 184.49999999999994 0 180.49999999999994Z" stroke-dasharray="7.5,3" stroke="rgba(33,41,48,1)" stroke-width="1.5" fill-opacity="1" fill="#d2d6f9"></path><g id="SvgjsG1531"><text id="SvgjsText1532" font-family="&quot;Microsoft YaHei&quot;, 微软雅黑, Arial" text-anchor="middle" font-size="13px" width="508px" fill="#323232" font-weight="400" align="middle" lineHeight="125%" anchor="middle" family="&quot;Microsoft YaHei&quot;, 微软雅黑, Arial" size="13px" weight="400" font-style="" opacity="1" y="81.62499999999997" transform="rotate(0)"></text></g></g><g id="SvgjsG1533" transform="translate(114.90909090909099,503.375)"><path id="SvgjsPath1534" d="M 0 0L 527.9999999999991 0L 527.9999999999991 40L 0 40Z" stroke="none" fill="none"></path><g id="SvgjsG1535"><text id="SvgjsText1536" font-family="&quot;Times New Roman&quot;" text-anchor="middle" font-size="18px" width="528px" fill="#323232" font-weight="700" align="middle" lineHeight="125%" anchor="middle" family="&quot;Times New Roman&quot;" size="18px" weight="700" font-style="" opacity="1" y="4.25" transform="rotate(0)"><tspan id="SvgjsTspan1537" dy="22.5" x="264"><tspan id="SvgjsTspan1538" style="">Gate-layer Synthesis</tspan></tspan></text></g></g><g id="SvgjsG1539" transform="translate(147.90909090909008,545.625)"><path id="SvgjsPath1540" d="M 0 4Q 0 0 4 0L 118 0Q 122 0 122 4L 122 131.12499999999997Q 122 135.12499999999997 118 135.12499999999997L 4 135.12499999999997Q 0 135.12499999999997 0 131.12499999999997Z" stroke="rgba(33,41,48,1)" stroke-width="1.5" fill-opacity="1" fill="#ffffff"></path><g id="SvgjsG1541"><text id="SvgjsText1542" font-family="&quot;Times New Roman&quot;" text-anchor="middle" font-size="13px" width="102px" fill="#323232" font-weight="400" align="middle" lineHeight="125%" anchor="middle" family="&quot;Times New Roman&quot;" size="13px" weight="400" font-style="" opacity="1" y="56.937499999999986" transform="rotate(0)"></text></g></g><g id="SvgjsG1543" transform="translate(147.90909090909008,543.375)"><path id="SvgjsPath1544" d="M 0 0L 122 0L 122 40L 0 40Z" stroke="none" fill="none"></path><g id="SvgjsG1545"><text id="SvgjsText1546" font-family="&quot;Times New Roman&quot;" text-anchor="middle" font-size="16px" width="122px" fill="#323232" font-weight="400" align="middle" lineHeight="125%" anchor="middle" family="&quot;Times New Roman&quot;" size="16px" weight="400" font-style="" opacity="1" y="6" transform="rotate(0)"><tspan id="SvgjsTspan1547" dy="20" x="61"><tspan id="SvgjsTspan1548" style="font-weight: bold;">Tools</tspan></tspan></text></g></g><g id="SvgjsG1549" transform="translate(496.9090909090901,545.625)"><path id="SvgjsPath1550" d="M 0 4Q 0 0 4 0L 118 0Q 122 0 122 4L 122 131.12499999999997Q 122 135.12499999999997 118 135.12499999999997L 4 135.12499999999997Q 0 135.12499999999997 0 131.12499999999997Z" stroke="rgba(33,41,48,1)" stroke-width="1.5" fill-opacity="1" fill="#ffffff"></path><g id="SvgjsG1551"><text id="SvgjsText1552" font-family="&quot;Times New Roman&quot;" text-anchor="middle" font-size="13px" width="102px" fill="#323232" font-weight="400" align="middle" lineHeight="125%" anchor="middle" family="&quot;Times New Roman&quot;" size="13px" weight="400" font-style="" opacity="1" y="56.937499999999986" transform="rotate(0)"></text></g></g><g id="SvgjsG1553" transform="translate(496.9090909090901,543.375)"><path id="SvgjsPath1554" d="M 0 0L 122 0L 122 40L 0 40Z" stroke="none" fill="none"></path><g id="SvgjsG1555"><text id="SvgjsText1556" font-family="&quot;Times New Roman&quot;" text-anchor="middle" font-size="16px" width="122px" fill="#323232" font-weight="400" align="middle" lineHeight="125%" anchor="middle" family="&quot;Times New Roman&quot;" size="16px" weight="400" font-style="" opacity="1" y="6" transform="rotate(0)"><tspan id="SvgjsTspan1557" dy="20" x="61"><tspan id="SvgjsTspan1558" style="font-weight: bold;">Database</tspan></tspan></text></g></g><g id="SvgjsG1559" transform="translate(322.4090909090901,545.625)"><path id="SvgjsPath1560" d="M 0 4Q 0 0 4 0L 118 0Q 122 0 122 4L 122 131.12499999999997Q 122 135.12499999999997 118 135.12499999999997L 4 135.12499999999997Q 0 135.12499999999997 0 131.12499999999997Z" stroke="rgba(33,41,48,1)" stroke-width="1.5" fill-opacity="1" fill="#ffffff"></path><g id="SvgjsG1561"><text id="SvgjsText1562" font-family="&quot;Times New Roman&quot;" text-anchor="middle" font-size="13px" width="102px" fill="#323232" font-weight="400" align="middle" lineHeight="125%" anchor="middle" family="&quot;Times New Roman&quot;" size="13px" weight="400" font-style="" opacity="1" y="56.937499999999986" transform="rotate(0)"></text></g></g><g id="SvgjsG1563" transform="translate(322.4090909090901,543.375)"><path id="SvgjsPath1564" d="M 0 0L 122 0L 122 40L 0 40Z" stroke="none" fill="none"></path><g id="SvgjsG1565"><text id="SvgjsText1566" font-family="&quot;Times New Roman&quot;" text-anchor="middle" font-size="16px" width="122px" fill="#323232" font-weight="400" align="middle" lineHeight="125%" anchor="middle" family="&quot;Times New Roman&quot;" size="16px" weight="400" font-style="" opacity="1" y="6" transform="rotate(0)"><tspan id="SvgjsTspan1567" dy="20" x="61"><tspan id="SvgjsTspan1568" style="font-weight: bold;">Operators</tspan></tspan></text></g></g><g id="SvgjsG1569" transform="translate(158.90909090909008,596.375)"><path id="SvgjsPath1570" d="M 0 0L 100 0L 100 49L 0 49Z" stroke="none" fill="none"></path><g id="SvgjsG1571"><text id="SvgjsText1572" font-family="&quot;Microsoft YaHei&quot;, 微软雅黑, Arial" text-anchor="middle" font-size="13px" width="100px" fill="#323232" font-weight="400" align="middle" lineHeight="125%" anchor="middle" family="&quot;Microsoft YaHei&quot;, 微软雅黑, Arial" size="13px" weight="400" font-style="" opacity="1" y="-2.625" transform="rotate(0)"><tspan id="SvgjsTspan1573" dy="16.25" x="50"><tspan id="SvgjsTspan1574" style="">iEDA</tspan></tspan><tspan id="SvgjsTspan1575" dy="16.25" x="50"><tspan id="SvgjsTspan1576" style="">Nextpnr</tspan></tspan><tspan id="SvgjsTspan1577" dy="16.25" x="50"><tspan id="SvgjsTspan1578" style="">...</tspan></tspan></text></g></g><g id="SvgjsG1579" transform="translate(333.4090909090901,582.75)"><path id="SvgjsPath1580" d="M 0 0L 100 0L 100 98L 0 98Z" stroke="none" fill="none"></path><g id="SvgjsG1581"><text id="SvgjsText1582" font-family="&quot;Microsoft YaHei&quot;, 微软雅黑, Arial" text-anchor="middle" font-size="13px" width="100px" fill="#323232" font-weight="400" align="middle" lineHeight="125%" anchor="middle" family="&quot;Microsoft YaHei&quot;, 微软雅黑, Arial" size="13px" weight="400" font-style="" opacity="1" y="-2.625" transform="rotate(0)"><tspan id="SvgjsTspan1583" dy="16.25" x="50"><tspan id="SvgjsTspan1584" style="">STA</tspan></tspan><tspan id="SvgjsTspan1585" dy="16.25" x="50"><tspan id="SvgjsTspan1586" style="">Floorplan</tspan></tspan><tspan id="SvgjsTspan1587" dy="16.25" x="50"><tspan id="SvgjsTspan1588" style="">Placement</tspan></tspan><tspan id="SvgjsTspan1589" dy="16.25" x="50"><tspan id="SvgjsTspan1590" style="">CTS</tspan></tspan><tspan id="SvgjsTspan1591" dy="16.25" x="50"><tspan id="SvgjsTspan1592" style="">Routing</tspan></tspan><tspan id="SvgjsTspan1593" dy="16.25" x="50"><tspan id="SvgjsTspan1594" style="">...</tspan></tspan></text></g></g><g id="SvgjsG1595" transform="translate(509.9090909090901,596.375)"><path id="SvgjsPath1596" d="M 0 0L 100 0L 100 49L 0 49Z" stroke="none" fill="none"></path><g id="SvgjsG1597"><text id="SvgjsText1598" font-family="&quot;Microsoft YaHei&quot;, 微软雅黑, Arial" text-anchor="middle" font-size="13px" width="100px" fill="#323232" font-weight="400" align="middle" lineHeight="125%" anchor="middle" family="&quot;Microsoft YaHei&quot;, 微软雅黑, Arial" size="13px" weight="400" font-style="" opacity="1" y="-2.625" transform="rotate(0)"><tspan id="SvgjsTspan1599" dy="16.25" x="50"><tspan id="SvgjsTspan1600" style="">Gate Netlist</tspan></tspan><tspan id="SvgjsTspan1601" dy="16.25" x="50"><tspan id="SvgjsTspan1602" style="">Def</tspan></tspan><tspan id="SvgjsTspan1603" dy="16.25" x="50"><tspan id="SvgjsTspan1604" style="">Layout</tspan></tspan></text></g></g><g id="SvgjsG1605" transform="translate(284.03409090909054,590.875)"><path id="SvgjsPath1606" d="M 0 19.799999999999997L 13.337499999999494 19.799999999999997L 13.337499999999494 0L 24.249999999999087 30L 13.337499999999494 60L 13.337499999999494 40.199999999999996L 0 40.199999999999996L 0 19.799999999999997Z" stroke="rgba(33,41,48,1)" stroke-width="1.5" fill-opacity="1" fill="#ffffff"></path><g id="SvgjsG1607"><text id="SvgjsText1608" font-family="&quot;Microsoft YaHei&quot;, 微软雅黑, Arial" text-anchor="middle" font-size="13px" width="25px" fill="#323232" font-weight="400" align="middle" lineHeight="125%" anchor="middle" family="&quot;Microsoft YaHei&quot;, 微软雅黑, Arial" size="13px" weight="400" font-style="" opacity="1" y="19.374999999999996" transform="rotate(0)"></text></g></g><g id="SvgjsG1609" transform="matrix(0.766044443118978,0.6427876096865393,-0.6427876096865393,0.766044443118978,474.53487834011634,576.6556224757321)"><path id="SvgjsPath1610" d="M 0 10.436250000000008L 13.337499999999494 10.436250000000008L 13.337499999999494 0L 24.249999999999087 15.812500000000014L 13.337499999999494 31.62500000000003L 13.337499999999494 21.188750000000017L 0 21.188750000000017L 0 10.436250000000008Z" stroke="rgba(33,41,48,1)" stroke-width="1.5" fill-opacity="1" fill="#ffffff"></path><g id="SvgjsG1611"><text id="SvgjsText1612" font-family="&quot;Microsoft YaHei&quot;, 微软雅黑, Arial" text-anchor="middle" font-size="13px" width="25px" fill="#323232" font-weight="400" align="middle" lineHeight="125%" anchor="middle" family="&quot;Microsoft YaHei&quot;, 微软雅黑, Arial" size="13px" weight="400" font-style="" opacity="1" y="5.187500000000012" transform="rotate(0)"></text></g></g><g id="SvgjsG1613" transform="matrix(-0.8191520442889916,0.5735764363510464,-0.5735764363510464,-0.8191520442889916,493.66098407156977,645.5607274095635)"><path id="SvgjsPath1614" d="M 0 10.436250000000008L 13.337499999999494 10.436250000000008L 13.337499999999494 0L 24.249999999999087 15.812500000000014L 13.337499999999494 31.62500000000003L 13.337499999999494 21.188750000000017L 0 21.188750000000017L 0 10.436250000000008Z" stroke="rgba(33,41,48,1)" stroke-width="1.5" fill-opacity="1" fill="#ffffff"></path><g id="SvgjsG1615"><text id="SvgjsText1616" font-family="&quot;Microsoft YaHei&quot;, 微软雅黑, Arial" text-anchor="middle" font-size="13px" width="25px" fill="#323232" font-weight="400" align="middle" lineHeight="125%" anchor="middle" family="&quot;Microsoft YaHei&quot;, 微软雅黑, Arial" size="13px" weight="400" font-style="" opacity="1" y="5.187500000000012" transform="rotate(0)"></text></g></g><g id="SvgjsG1617"><path id="SvgjsPath1618" d="M378.90909090909054 448L378.90909090909054 475.3125L378.90909090909054 475.3125L378.90909090909054 500.67499999999995" stroke="#323232" stroke-width="1.5" fill="none" marker-end="url(#SvgjsMarker1619)"></path><rect id="SvgjsRect1621" width="92.666666" height="17" x="332.57575790909056" y="462.14203786191536" fill="#ffffff"></rect><text id="SvgjsText1622" font-family="&quot;Microsoft YaHei&quot;, 微软雅黑, Arial" text-anchor="middle" font-size="13px" width="92.6667px" fill="#323232" font-weight="700" align="top" lineHeight="16px" anchor="middle" family="&quot;Microsoft YaHei&quot;, 微软雅黑, Arial" size="13px" weight="700" font-style="" opacity="1" y="459.51703786191536" transform="rotate(0)"><tspan id="SvgjsTspan1623" dy="16.25" x="378.57575790909056"><tspan id="SvgjsTspan1624" style="">Tech Mapping</tspan></tspan></text></g><g id="SvgjsG1625"></g></svg>